<svg viewBox="0 0 512 512" xmlns="http://www.w3.org/2000/svg" xmlns:xlink="http://www.w3.org/1999/xlink"><linearGradient id="a" gradientTransform="matrix(1 0 0 -1 0 -19430)" gradientUnits="userSpaceOnUse" x1="0" x2="512" y1="-19686" y2="-19686"><stop offset="0" stop-color="#00f1ff"/><stop offset=".231" stop-color="#00d8ff"/><stop offset=".5138" stop-color="#00c0ff"/><stop offset=".7773" stop-color="#00b2ff"/><stop offset="1" stop-color="#00adff"/></linearGradient><path d="m512 256c0 141.386719-114.613281 256-256 256s-256-114.613281-256-256 114.613281-256 256-256 256 114.613281 256 256zm0 0" fill="url(#a)"/><path d="m432.082031 356.167969c-1.6875-8.109375-9.632812-13.3125-17.742187-11.628907-8.109375 1.6875-13.316406 9.632813-11.625 17.742188.808594 3.898438-.15625 7.894531-2.652344 10.964844-1.441406 1.773437-4.660156 4.75-9.996094 4.75h-268.132812c-5.335938 0-8.550782-2.976563-9.996094-4.75-2.496094-3.066406-3.460938-7.066406-2.648438-10.964844 14.132813-67.894531 74.046876-117.476562 143.214844-119.101562 1.160156.042968 2.324219.074218 3.496094.074218 1.101562 0 2.195312-.027344 3.285156-.066406 48.820313 1.066406 93.96875 25.730469 121.285156 66.46875 4.613282 6.878906 13.929688 8.71875 20.8125 4.105469 6.878907-4.613281 8.71875-13.933594 4.101563-20.8125-22.230469-33.160157-54.316406-57.4375-90.941406-70.03125 21.960937-17.34375 36.085937-44.199219 36.085937-74.292969 0-52.179688-42.449218-94.628906-94.628906-94.628906s-94.628906 42.449218-94.628906 94.628906c0 30.109375 14.140625 56.980469 36.121094 74.320312-20.148438 6.933594-39.058594 17.410157-55.679688 31.082032-31.613281 26.003906-53.597656 62.277344-61.894531 102.140625-2.660157 12.777343.527343 25.898437 8.742187 36.007812 8.179688 10.054688 20.308594 15.820313 33.273438 15.820313h268.132812c12.964844 0 25.09375-5.765625 33.269532-15.820313 8.21875-10.105469 11.40625-23.230469 8.746093-36.007812zm-240.710937-207.542969c0-35.636719 28.992187-64.628906 64.628906-64.628906s64.628906 28.992187 64.628906 64.628906c0 34.699219-27.492187 63.085938-61.832031 64.558594-.933594-.015625-1.863281-.042969-2.796875-.042969-1.050781 0-2.101562.015625-3.148438.03125-34.179687-1.648437-61.480468-29.96875-61.480468-64.546875zm0 0" fill="#fff"/></svg>